<?xml version="1.0" standalone="no"?>
<!DOCTYPE svg PUBLIC "-//W3C//DTD SVG 20010904//EN"
 "http://www.w3.org/TR/2001/REC-SVG-20010904/DTD/svg10.dtd">
<svg version="1.0" xmlns="http://www.w3.org/2000/svg"
 width="240.000000pt" height="240.000000pt" viewBox="0 0 240.000000 240.000000"
 preserveAspectRatio="xMidYMid meet">
<metadata>
Created by potrace 1.11, written by Peter Selinger 2001-2013
</metadata>
<g transform="translate(0.000000,240.000000) scale(0.100000,-0.100000)"
fill="#000000" stroke="none">
<path d="M999 2385 c-244 -41 -462 -155 -645 -339 -234 -234 -354 -520 -354
-846 0 -586 418 -1084 994 -1185 111 -19 306 -19 411 -1 502 90 891 479 981
981 18 102 18 295 0 405 -72 442 -407 822 -838 951 -163 48 -383 62 -549 34z
m465 -105 c411 -107 709 -404 817 -816 21 -78 24 -111 23 -269 0 -164 -3 -189
-28 -280 -105 -388 -407 -690 -794 -792 -129 -34 -345 -43 -474 -19 -235 44
-429 145 -594 310 -92 93 -189 234 -233 341 -107 256 -119 542 -35 794 130
388 454 669 861 746 111 21 350 13 457 -15z"/>
<path d="M1210 2010 c-80 -19 -108 -114 -51 -171 16 -16 40 -29 53 -29 42 0
68 -12 68 -30 0 -26 -31 -33 -81 -20 -38 10 -43 9 -66 -12 l-24 -23 26 -22
c26 -23 58 -29 125 -24 73 5 118 58 106 124 -9 46 -38 70 -99 82 -54 11 -67
29 -35 49 13 8 26 7 50 -2 28 -10 34 -9 55 10 29 27 29 34 1 52 -31 19 -86 26
-128 16z"/>
<path d="M693 1998 c3 -8 24 -83 47 -166 l42 -152 37 0 c37 0 37 0 60 70 12
39 24 70 26 70 3 0 14 -31 26 -70 l21 -70 37 0 38 0 42 153 c22 84 41 158 41
165 0 7 -16 12 -43 12 l-43 0 -18 -77 -19 -77 -13 35 c-7 18 -18 53 -24 77
-10 39 -13 42 -45 42 -34 0 -35 0 -56 -75 -12 -41 -24 -73 -27 -71 -2 3 -11
35 -20 73 l-17 68 -49 3 c-38 3 -47 0 -43 -10z"/>
<path d="M1410 1845 l0 -165 90 0 c88 0 91 1 126 33 32 29 35 38 41 103 7 86
-7 134 -48 169 -28 23 -39 25 -120 25 l-89 0 0 -165z m160 66 c5 -11 10 -41
10 -66 0 -62 -14 -85 -50 -85 l-30 0 0 85 0 85 30 0 c19 0 33 -7 40 -19z"/>
<path d="M628 1498 l-37 -73 112 -6 c62 -4 239 -7 395 -8 l282 -1 0 50 c0 28
2 50 4 50 3 0 78 -48 167 -106 141 -93 160 -108 143 -117 -10 -6 -91 -52 -179
-103 l-160 -93 -3 44 -3 45 -533 0 -533 0 -14 -27 c-7 -16 -15 -31 -17 -35 -2
-5 60 -8 139 -8 l142 0 -7 -54 c-6 -54 -6 -55 30 -83 28 -21 48 -27 86 -28 54
0 53 -1 84 73 23 56 64 85 128 89 84 7 141 -40 170 -139 5 -17 30 -18 351 -18
277 0 345 3 345 13 0 7 12 36 26 65 32 65 74 92 142 92 43 0 57 -5 86 -31 21
-18 43 -52 54 -82 19 -50 21 -52 62 -55 l42 -3 -4 102 -3 101 -45 39 c-25 22
-84 59 -133 83 -66 33 -115 69 -202 148 -180 162 -120 148 -639 148 l-441 0
-37 -72z"/>
<path d="M1407 1454 c-4 -4 -7 -20 -7 -36 l0 -28 -482 0 -483 0 -28 -39 c-15
-22 -27 -42 -27 -45 0 -3 286 -6 635 -6 349 0 635 3 635 8 0 6 -203 138 -230
150 -3 1 -9 -1 -13 -4z"/>
<path d="M799 1063 c-131 -81 -16 -289 121 -218 89 46 95 168 10 219 -36 20
-97 20 -131 -1z m106 -67 c38 -38 16 -96 -36 -96 -56 0 -82 73 -37 104 31 22
45 20 73 -8z"/>
<path d="M1822 1066 c-37 -20 -62 -66 -62 -114 0 -92 109 -152 187 -103 74 46
83 140 19 198 -29 27 -44 33 -78 33 -24 -1 -53 -6 -66 -14z m96 -62 c45 -31
19 -104 -37 -104 -54 0 -74 67 -31 102 27 22 39 22 68 2z"/>
<path d="M765 785 c-20 -20 -25 -34 -25 -78 0 -64 19 -94 65 -103 36 -7 85 26
85 57 0 23 -27 25 -51 3 -31 -28 -51 -11 -47 43 3 41 6 48 26 51 12 2 22 -1
22 -7 0 -6 11 -11 25 -11 31 0 32 20 2 48 -31 29 -72 28 -102 -3z"/>
<path d="M1335 800 c-9 -15 4 -30 26 -30 12 0 19 7 19 20 0 21 -33 29 -45 10z"/>
<path d="M929 741 c-33 -27 -33 -95 0 -122 50 -41 104 -9 104 61 0 70 -54 102
-104 61z m57 -45 c7 -29 -1 -46 -22 -46 -9 0 -14 10 -14 28 0 47 25 59 36 18z"/>
<path d="M1060 696 c0 -91 13 -100 123 -87 4 1 7 34 5 74 -3 66 -5 72 -25 75
-22 3 -23 0 -23 -53 0 -48 -3 -56 -17 -53 -14 2 -19 15 -21 56 -3 44 -6 52
-23 52 -17 0 -19 -7 -19 -64z"/>
<path d="M1214 745 c-3 -7 -4 -41 -2 -76 3 -56 5 -64 23 -64 17 0 21 8 25 55
4 43 8 54 21 52 19 -3 43 23 35 37 -9 13 -97 10 -102 -4z"/>
<path d="M1337 753 c-10 -10 -8 -126 2 -142 5 -8 16 -11 25 -8 13 5 16 22 16
82 0 66 -2 75 -18 75 -10 0 -22 -3 -25 -7z"/>
<path d="M1425 735 c-61 -60 0 -155 80 -125 35 13 27 35 -13 35 -39 0 -54 15
-16 16 16 1 34 1 40 0 33 -4 20 70 -15 88 -30 17 -50 13 -76 -14z m60 -25 c3
-5 -3 -10 -15 -10 -12 0 -18 5 -15 10 3 6 10 10 15 10 5 0 12 -4 15 -10z"/>
<path d="M1562 681 c2 -60 6 -76 18 -76 10 0 16 12 18 35 5 64 11 78 30 73 10
-2 25 3 32 12 19 23 0 33 -57 32 l-44 0 3 -76z"/>
<path d="M1152 584 c-17 -12 -23 -24 -21 -48 2 -17 -3 -41 -9 -53 -34 -62 -3
-92 96 -91 73 0 84 6 57 28 -11 9 -12 17 -5 30 6 10 10 26 10 34 0 18 -31 21
-47 5 -8 -8 -13 -8 -18 0 -3 6 1 18 9 27 21 21 20 40 -4 64 -24 24 -38 25 -68
4z m38 -44 c0 -5 -2 -10 -4 -10 -3 0 -8 5 -11 10 -3 6 -1 10 4 10 6 0 11 -4
11 -10z m0 -85 c7 -9 10 -18 7 -21 -10 -11 -37 5 -37 21 0 19 14 19 30 0z"/>
<path d="M893 399 c-31 -11 -43 -40 -43 -103 0 -68 22 -96 74 -96 25 0 40 7
55 26 12 15 21 31 21 35 0 14 -40 10 -56 -6 -26 -26 -44 -7 -44 46 0 55 22 77
45 46 14 -20 55 -23 55 -4 0 38 -65 72 -107 56z"/>
<path d="M1023 334 c-8 -21 11 -32 45 -28 l27 4 -28 -9 c-40 -14 -57 -30 -57
-56 0 -34 23 -47 77 -43 l48 3 -1 57 c0 31 -6 64 -14 72 -17 22 -89 21 -97 0z
m62 -84 c-3 -5 -13 -10 -21 -10 -8 0 -12 5 -9 10 3 6 13 10 21 10 8 0 12 -4 9
-10z"/>
<path d="M1160 275 c0 -73 1 -75 25 -75 24 0 25 3 25 56 0 47 3 55 18 52 22
-3 42 9 42 28 0 10 -14 14 -55 14 l-55 0 0 -75z"/>
<path d="M1280 331 c-14 -27 -13 -84 3 -105 8 -10 26 -18 40 -18 38 0 34 -16
-5 -20 -50 -5 -43 -32 9 -36 59 -4 73 19 73 120 l0 78 -55 0 c-43 0 -56 -4
-65 -19z m68 -54 c2 -19 -1 -27 -12 -27 -11 0 -16 10 -16 31 0 38 24 35 28 -4z"/>
<path d="M1436 328 c-22 -31 -20 -84 4 -108 27 -27 75 -26 94 2 22 31 20 91
-2 111 -27 25 -78 22 -96 -5z m64 -54 c0 -45 -24 -42 -28 4 -2 24 1 32 12 32
12 0 16 -10 16 -36z"/>
</g>
</svg>
