<?xml version="1.0" standalone="no"?>
<!DOCTYPE svg PUBLIC "-//W3C//DTD SVG 20010904//EN"
 "http://www.w3.org/TR/2001/REC-SVG-20010904/DTD/svg10.dtd">
<svg version="1.0" xmlns="http://www.w3.org/2000/svg"
 width="305.000000pt" height="305.000000pt" viewBox="0 0 305.000000 305.000000"
 preserveAspectRatio="xMidYMid meet">
<metadata>
Created by potrace 1.11, written by Peter Selinger 2001-2013
</metadata>
<g transform="translate(0.000000,305.000000) scale(0.100000,-0.100000)"
fill="#000000" stroke="none">
<path d="M1280 2950 c-846 -155 -1371 -995 -1135 -1815 68 -234 219 -484 391
-647 172 -162 419 -295 663 -356 99 -24 121 -26 331 -26 221 0 227 1 342 32
265 71 463 181 652 361 197 189 327 417 402 706 28 106 29 119 28 335 0 219
-1 228 -32 341 -73 274 -202 494 -400 687 -192 186 -421 309 -697 373 -134 31
-403 35 -545 9z m560 -123 c516 -136 881 -517 991 -1034 28 -129 30 -368 5
-496 -105 -543 -509 -955 -1049 -1068 -210 -44 -500 -24 -702 48 -379 136
-681 439 -812 813 -59 168 -68 226 -68 450 1 188 3 213 27 306 65 248 173 441
346 618 183 186 400 309 647 365 129 29 132 29 335 26 160 -2 198 -6 280 -28z"/>
<path d="M920 2351 c0 -3 23 -93 52 -198 l53 -193 45 0 45 0 17 59 c10 32 23
71 29 87 12 28 13 27 39 -56 l27 -85 46 -3 46 -3 11 43 c6 24 29 108 51 187
21 79 39 151 39 158 0 11 -12 14 -52 11 l-52 -3 -20 -82 c-12 -45 -24 -84 -27
-87 -3 -3 -16 29 -29 72 -29 95 -36 104 -74 100 -30 -3 -32 -7 -62 -98 l-30
-95 -25 95 -24 94 -52 2 c-29 1 -53 -1 -53 -5z"/>
<path d="M1515 2346 c-53 -24 -70 -51 -70 -118 0 -52 3 -63 27 -83 15 -13 46
-26 70 -30 71 -11 79 -15 76 -38 -2 -18 -11 -23 -42 -25 -21 -2 -52 2 -68 9
-26 11 -32 9 -58 -16 -17 -16 -30 -32 -30 -36 0 -15 67 -48 113 -54 62 -10
127 9 163 46 22 23 28 38 28 78 1 83 -25 106 -156 135 -33 8 -36 31 -7 47 17
8 32 8 62 -1 37 -11 41 -10 68 16 16 15 29 32 29 36 0 17 -85 48 -130 47 -25
0 -58 -6 -75 -13z"/>
<path d="M1842 2353 l-62 -4 2 -196 3 -197 99 3 c166 4 196 34 196 197 0 89
-3 105 -23 135 -37 55 -88 69 -215 62z m125 -123 c7 -14 13 -47 13 -75 0 -69
-17 -99 -58 -103 l-32 -3 0 106 0 106 32 -3 c23 -2 36 -11 45 -28z"/>
<path d="M812 1705 c-23 -47 -42 -90 -42 -95 0 -6 168 -10 470 -10 l469 0 3
60 3 59 190 -124 c104 -68 191 -127 192 -132 1 -4 -93 -63 -210 -130 l-212
-122 -3 54 -3 55 -622 2 c-342 2 -628 1 -635 -1 -13 -4 -42 -52 -42 -71 0 -6
56 -10 163 -10 l162 0 -3 -69 -4 -69 38 -28 c32 -25 46 -29 103 -29 l65 0 23
60 c27 70 66 110 124 125 111 30 208 -28 240 -142 l10 -38 414 0 c389 0 415 1
415 18 1 25 38 104 63 130 33 36 72 52 126 53 89 2 156 -54 183 -153 l12 -48
54 0 54 0 -4 103 c-5 153 -32 186 -235 287 -66 34 -116 69 -180 127 -138 126
-195 173 -238 196 -39 22 -48 22 -570 25 l-530 3 -43 -86z"/>
<path d="M1740 1615 l0 -45 -582 -2 -582 -3 -29 -43 c-16 -24 -27 -45 -25 -48
3 -2 346 -3 763 -2 l759 3 -147 93 c-81 50 -149 92 -152 92 -3 0 -5 -20 -5
-45z"/>
<path d="M1016 1181 c-65 -43 -88 -130 -52 -199 49 -95 196 -98 257 -6 25 39
25 119 0 160 -37 60 -145 84 -205 45z m114 -66 c75 -39 28 -152 -54 -131 -15
4 -33 20 -42 37 -13 26 -14 36 -3 61 11 26 36 45 62 47 4 1 21 -6 37 -14z"/>
<path d="M2235 1182 c-47 -29 -68 -68 -69 -127 -1 -90 59 -145 159 -145 39 0
52 5 88 39 41 39 42 41 42 105 0 62 -2 68 -37 103 -33 32 -44 37 -95 40 -45 3
-65 0 -88 -15z m119 -73 c50 -40 22 -129 -41 -129 -30 0 -73 42 -73 70 0 31
18 60 43 70 33 13 42 12 71 -11z"/>
</g>
</svg>
